<svg width="600" height="176" viewBox="0 0 600 176" fill="none" xmlns="http://www.w3.org/2000/svg">
<path d="M124.192 16.941C109.87 14.5539 94.3248 14.9719 79.8143 15.3641C72.9932 15.5485 66.0871 17.0317 59.4951 18.7431C49.1301 21.4341 39.2366 24.8657 29.6696 29.7362C24.348 32.4454 17.4544 35.5972 13.5403 40.1887C9.19557 45.2855 6.50562 52.7301 5.6109 59.2914C3.24457 76.6445 6.79997 93.1962 14.7117 108.58C18.8937 116.712 25.9985 120.955 32.3728 127.052C37.9352 132.373 45.2022 136.754 52.0162 140.208C73.6831 151.19 97.3061 156.579 121.219 160.302C156.049 165.725 191.336 169.898 226.644 168.411C244.768 167.648 262.594 167.173 280.709 168.592C308.837 170.795 336.64 171.691 364.779 169.403C388.12 167.504 411.591 167.909 434.972 166.79C456.264 165.77 477.279 162.602 498.453 160.302C516.464 158.346 534.946 158.75 552.698 154.805C570.193 150.917 586.033 139.142 590.903 121.285C594.338 108.692 596.984 95.548 594.057 82.5391C586.529 49.0841 543.729 39.5583 514.717 35.2778C490.226 31.6643 465.763 27.6124 441.19 24.2397C400.774 18.6924 360.094 15.571 319.545 11.1741C294.86 8.49746 270.399 5.58747 245.522 5.58747C223.718 5.58747 201.947 4.7765 180.149 4.7765C145.855 4.7765 110.522 3.78631 77.1561 12.8862" stroke="#FFBE29" stroke-width="9"/>
</svg>
